<?xml version="1.0" encoding="UTF-8"?><svg id="uuid-007744aa-65d7-4ee2-a097-5d6f81e37c87" xmlns="http://www.w3.org/2000/svg" viewBox="0 0 300 250"><defs><style>.uuid-a7b02ae2-10a0-404a-a5ac-978da3062ddd{stroke:#fff;stroke-miterlimit:10;stroke-width:.3px;}.uuid-a7b02ae2-10a0-404a-a5ac-978da3062ddd,.uuid-2061e19c-e1a7-4c20-aba5-29f540e13e9f{fill:#fff;}.uuid-2061e19c-e1a7-4c20-aba5-29f540e13e9f{stroke-width:0px;}</style></defs><path class="uuid-2061e19c-e1a7-4c20-aba5-29f540e13e9f" d="M149.61,238.92v-8.4h1.56v6.96h3.35v1.44h-4.91Z"/><path class="uuid-2061e19c-e1a7-4c20-aba5-29f540e13e9f" d="M159.69,238.45c-.23.18-.49.32-.79.43-.29.11-.59.16-.89.16-.43,0-.84-.08-1.22-.25s-.72-.39-1-.67c-.28-.28-.5-.61-.67-.99-.16-.38-.25-.79-.25-1.22s.08-.84.25-1.22.39-.71.67-.99c.28-.28.61-.5,1-.67s.79-.25,1.22-.25.86.09,1.28.28c.42.19.78.45,1.07.77.28-.33.63-.59,1.06-.77.42-.19.85-.28,1.28-.28.38,0,.74.06,1.08.19s.63.31.89.53c.26.23.48.5.65.81.17.31.29.65.34,1.01.03.18.05.37.06.57s.01.4.01.61h-4.68v.4c.04.09.11.18.22.28.1.1.23.18.37.26.14.08.3.14.47.19.17.05.34.08.53.08.26,0,.47-.03.64-.09.17-.06.31-.13.43-.21.13-.09.23-.19.31-.3h1.6c-.07.25-.19.49-.37.71-.17.23-.38.43-.64.61s-.54.32-.86.43c-.32.11-.67.16-1.04.16-.34,0-.64-.05-.92-.16-.28-.1-.52-.24-.73-.42v.46h-1.37v-.47ZM159.69,234.96s-.06-.08-.13-.17c-.07-.09-.17-.18-.3-.28-.13-.1-.3-.18-.49-.25-.2-.07-.43-.11-.7-.11-.25,0-.48.05-.69.14-.21.1-.4.22-.56.38-.16.16-.29.35-.38.56-.09.21-.14.44-.14.68s.05.47.14.68c.09.21.22.4.38.56.16.16.35.29.56.39.21.1.44.14.69.14.3,0,.55-.04.76-.12s.38-.17.5-.26c.14-.11.26-.24.36-.4v-1.96ZM164.18,235.41c-.02-.16-.06-.32-.14-.47-.08-.15-.18-.29-.31-.4-.13-.12-.29-.21-.47-.28s-.38-.11-.59-.11c-.23,0-.44.03-.62.09-.18.06-.34.13-.48.22-.14.08-.25.17-.33.26-.08.09-.14.17-.17.25v.44h3.12Z"/><path class="uuid-2061e19c-e1a7-4c20-aba5-29f540e13e9f" d="M166.56,232.92h1.44v.67c.15-.18.33-.34.55-.47s.47-.2.77-.2h.41v1.37h-.31c-.3,0-.58.09-.84.28-.26.18-.46.44-.58.77v3.59h-1.44v-6Z"/><path class="uuid-2061e19c-e1a7-4c20-aba5-29f540e13e9f" d="M172.66,232.92h1.62l1.61,3.29,1.57-3.29h1.58l-3.14,6.24-3.25-6.24Z"/><path class="uuid-2061e19c-e1a7-4c20-aba5-29f540e13e9f" d="M179.58,230.52h1.44v1.44h-1.44v-1.44ZM179.58,232.92h1.44v6h-1.44v-6Z"/><path class="uuid-2061e19c-e1a7-4c20-aba5-29f540e13e9f" d="M186.63,238.46c-.23.17-.49.31-.77.41-.28.11-.57.16-.88.16-.43,0-.84-.08-1.22-.25-.38-.16-.72-.39-1-.67s-.5-.61-.67-.99c-.16-.38-.25-.79-.25-1.22s.08-.84.25-1.22.39-.71.67-.99c.28-.28.61-.5,1-.67.38-.16.79-.25,1.22-.25.3,0,.59.05.87.16.28.11.54.25.77.41v-2.86h1.44v8.4h-1.44v-.46ZM186.63,234.96s-.06-.08-.13-.16-.17-.17-.3-.26-.29-.17-.47-.24c-.19-.07-.41-.11-.68-.11-.25,0-.48.05-.68.14s-.39.22-.55.37c-.16.16-.28.34-.37.55s-.13.43-.13.67.04.46.13.67.21.39.37.55c.16.16.34.28.55.37.21.09.44.14.68.14.28,0,.52-.04.72-.12.2-.08.36-.17.49-.28.14-.11.27-.24.37-.4v-1.9Z"/><path class="uuid-2061e19c-e1a7-4c20-aba5-29f540e13e9f" d="M195.09,237.12c-.14.32-.31.6-.53.84-.22.24-.46.44-.72.6-.26.16-.55.28-.85.36s-.6.12-.89.12c-.43,0-.84-.08-1.21-.25-.38-.16-.7-.39-.98-.67-.28-.28-.49-.61-.65-.99-.16-.38-.23-.79-.23-1.22s.08-.84.23-1.22c.16-.38.37-.71.65-.99.28-.28.6-.5.98-.67.38-.16.78-.25,1.21-.25s.82.07,1.18.2c.35.13.66.32.91.55.26.24.47.51.63.83.16.32.27.65.33,1.01.03.18.05.37.06.55,0,.18.01.37.01.58h-4.68c.02.16.09.31.19.46.1.15.22.28.37.38.14.11.3.19.48.26.18.06.35.1.53.1.26,0,.47-.03.64-.09.17-.06.31-.13.43-.21.13-.09.23-.19.31-.3h1.61ZM193.64,235.41c-.02-.17-.07-.33-.15-.48-.08-.15-.18-.29-.31-.4-.13-.12-.29-.21-.47-.28-.18-.07-.38-.1-.61-.1-.21,0-.4.04-.58.11-.18.07-.34.17-.48.28s-.26.25-.35.4c-.09.15-.15.31-.17.47h3.12Z"/><path class="uuid-2061e19c-e1a7-4c20-aba5-29f540e13e9f" d="M196.18,232.92h1.44v.67c.15-.18.33-.34.55-.47s.47-.2.77-.2h.41v1.37h-.31c-.3,0-.58.09-.84.28-.26.18-.46.44-.58.77v3.59h-1.44v-6Z"/><path class="uuid-2061e19c-e1a7-4c20-aba5-29f540e13e9f" d="M205.53,237.12c-.14.32-.31.6-.53.84s-.46.44-.72.6-.55.28-.85.36c-.3.08-.6.12-.89.12-.43,0-.84-.08-1.21-.25s-.7-.39-.98-.67c-.28-.28-.49-.61-.65-.99-.16-.38-.23-.79-.23-1.22s.08-.84.23-1.22.37-.71.65-.99c.28-.28.6-.5.98-.67s.78-.25,1.21-.25.82.07,1.18.2c.35.13.66.32.91.55.26.24.47.51.63.83.16.32.27.65.33,1.01.03.18.05.37.06.55,0,.18.01.37.01.58h-4.68c.02.16.09.31.19.46.1.15.22.28.37.38.14.11.3.19.48.26.18.06.35.1.53.1.26,0,.47-.03.64-.09.17-.06.31-.13.43-.21.13-.09.23-.19.31-.3h1.61ZM204.08,235.41c-.02-.17-.07-.33-.15-.48-.08-.15-.18-.29-.31-.4s-.29-.21-.47-.28c-.18-.07-.38-.1-.61-.1-.21,0-.4.04-.58.11s-.34.17-.48.28c-.14.12-.26.25-.35.4-.09.15-.15.31-.17.47h3.12Z"/><path class="uuid-a7b02ae2-10a0-404a-a5ac-978da3062ddd" d="M210.16,233.32h-.72v-.4h.72v-.73c0-.62.13-1.06.39-1.3.26-.24.61-.37,1.05-.37h.28v.4h-.18c-.37,0-.65.09-.83.27-.19.18-.28.49-.28.92v.82h1.3v.4h-1.3v5.6h-.42v-5.6Z"/><path class="uuid-a7b02ae2-10a0-404a-a5ac-978da3062ddd" d="M212.41,235.92c0-.43.08-.84.25-1.22.16-.38.39-.71.67-.99.28-.28.61-.5.99-.67s.79-.25,1.22-.25.84.08,1.22.25.71.39.99.67.5.61.67.99.25.79.25,1.22-.08.84-.25,1.22c-.16.38-.39.71-.67.99-.28.28-.61.5-.99.67s-.79.25-1.22.25-.84-.08-1.22-.25-.71-.39-.99-.67-.5-.61-.67-.99c-.16-.38-.25-.79-.25-1.22ZM215.53,238.65c.38,0,.74-.07,1.07-.21.33-.14.61-.33.86-.58.24-.25.43-.54.57-.86.14-.33.2-.68.2-1.07s-.07-.74-.2-1.07c-.14-.33-.33-.62-.57-.86-.24-.25-.53-.44-.86-.58s-.68-.21-1.07-.21-.74.07-1.07.21-.61.33-.85.58c-.24.25-.43.54-.57.86-.14.33-.21.68-.21,1.07s.07.74.21,1.07c.14.33.33.62.57.86.24.25.52.44.85.58.33.14.68.21,1.07.21Z"/><path class="uuid-a7b02ae2-10a0-404a-a5ac-978da3062ddd" d="M219.89,232.92h.42v.9c.18-.29.4-.51.64-.67s.52-.23.85-.23h.13v.4h-.13c-.35,0-.64.11-.88.33-.23.22-.44.5-.61.83v4.44h-.42v-6Z"/><path class="uuid-a7b02ae2-10a0-404a-a5ac-978da3062ddd" d="M231.08,238.07c-.36.36-.74.61-1.14.76-.4.14-.77.22-1.1.22-.43,0-.84-.08-1.22-.24-.38-.16-.71-.38-1-.67-.28-.28-.51-.62-.67-1-.16-.38-.25-.79-.25-1.22s.08-.84.25-1.22.39-.71.67-1,.62-.51,1-.67.79-.24,1.22-.24c.34,0,.7.07,1.1.22.4.15.78.4,1.14.76v-.86h.42v6h-.42v-.85ZM231.08,234.31c-.13-.14-.27-.27-.43-.41s-.34-.26-.53-.36c-.19-.1-.4-.19-.61-.25-.22-.06-.44-.1-.67-.1-.38,0-.74.07-1.07.21-.33.14-.61.33-.85.58s-.43.54-.57.86c-.14.33-.21.68-.21,1.07s.07.74.21,1.07c.14.33.33.62.57.86s.52.44.85.58c.33.14.68.21,1.07.21.47,0,.9-.11,1.28-.33.38-.22.7-.47.96-.76v-3.24Z"/><path class="uuid-a7b02ae2-10a0-404a-a5ac-978da3062ddd" d="M233.67,231.35h.42v1.57h1.3v.4h-1.3v3.97c0,.44.08.76.25.95.17.19.46.29.86.29h.18v.4h-.28c-.27,0-.5-.04-.68-.11-.18-.08-.33-.18-.44-.32-.11-.14-.19-.31-.24-.5-.05-.2-.07-.41-.07-.64v-4.02h-.73v-.4h.73v-1.57Z"/><path class="uuid-a7b02ae2-10a0-404a-a5ac-978da3062ddd" d="M239.83,232.92h.42v.86c.27-.26.6-.49.97-.69.38-.2.8-.31,1.28-.31.74,0,1.32.21,1.75.64.43.43.64,1.05.64,1.88v3.61h-.42v-3.47c0-1.5-.68-2.26-2.03-2.26-.22,0-.43.03-.65.1-.22.07-.42.15-.61.26-.19.1-.37.22-.53.36-.16.14-.3.27-.41.4v4.61h-.42v-6Z"/><path class="uuid-a7b02ae2-10a0-404a-a5ac-978da3062ddd" d="M251.44,238.07c-.36.36-.74.61-1.14.76-.4.14-.77.22-1.1.22-.43,0-.84-.08-1.22-.24-.38-.16-.71-.38-1-.67-.28-.28-.51-.62-.67-1-.16-.38-.25-.79-.25-1.22s.08-.84.25-1.22c.16-.38.39-.71.67-1,.28-.28.62-.51,1-.67.38-.16.79-.24,1.22-.24.34,0,.7.07,1.1.22.4.15.78.4,1.14.76v-.86h.42v6h-.42v-.85ZM251.44,234.31c-.13-.14-.27-.27-.43-.41s-.34-.26-.53-.36c-.19-.1-.4-.19-.61-.25-.22-.06-.44-.1-.67-.1-.38,0-.74.07-1.07.21s-.61.33-.85.58c-.24.25-.43.54-.57.86s-.21.68-.21,1.07.07.74.21,1.07.33.62.57.86c.24.25.52.44.85.58.33.14.68.21,1.07.21.47,0,.9-.11,1.28-.33.38-.22.7-.47.96-.76v-3.24ZM248.31,231.05c0-.26.09-.49.28-.67.18-.18.4-.28.66-.28s.49.09.67.28c.18.18.28.41.28.67s-.09.48-.28.66c-.18.18-.41.28-.67.28s-.48-.09-.66-.28c-.18-.18-.28-.4-.28-.66ZM249.25,231.62c.17,0,.31-.06.41-.17.11-.11.16-.25.16-.41s-.05-.31-.16-.42c-.11-.11-.25-.17-.41-.17s-.29.06-.4.17c-.11.11-.16.25-.16.42s.05.3.16.41c.11.11.24.17.4.17Z"/><path class="uuid-a7b02ae2-10a0-404a-a5ac-978da3062ddd" d="M256.06,232.92h.47l2.45,5.3,2.36-5.3h.44l-2.8,6.18-2.92-6.18Z"/><path class="uuid-a7b02ae2-10a0-404a-a5ac-978da3062ddd" d="M262.88,230.52h.42v1.08h-.42v-1.08ZM262.88,232.92h.42v6h-.42v-6Z"/><path class="uuid-a7b02ae2-10a0-404a-a5ac-978da3062ddd" d="M269.95,238.07c-.36.36-.74.61-1.14.76-.4.14-.77.22-1.1.22-.43,0-.84-.08-1.22-.24-.38-.16-.71-.38-1-.67-.28-.28-.51-.62-.67-1-.16-.38-.25-.79-.25-1.22s.08-.84.25-1.22c.16-.38.39-.71.67-1,.28-.28.62-.51,1-.67.38-.16.79-.24,1.22-.24.34,0,.7.07,1.1.22.4.15.78.4,1.14.76v-3.26h.42v8.4h-.42v-.85ZM269.95,234.31c-.13-.14-.27-.27-.43-.41s-.34-.26-.53-.36c-.19-.1-.4-.19-.61-.25-.22-.06-.44-.1-.67-.1-.38,0-.74.07-1.07.21s-.61.33-.85.58c-.24.25-.43.54-.57.86s-.21.68-.21,1.07.07.74.21,1.07.33.62.57.86c.24.25.52.44.85.58.33.14.68.21,1.07.21.47,0,.9-.11,1.28-.33.38-.22.7-.47.96-.76v-3.24Z"/><path class="uuid-a7b02ae2-10a0-404a-a5ac-978da3062ddd" d="M277.59,237.36c-.27.54-.66.95-1.17,1.24s-1.07.44-1.69.44c-.43,0-.84-.08-1.22-.25s-.71-.39-.99-.67-.5-.61-.67-.99c-.16-.38-.25-.79-.25-1.22s.08-.84.25-1.22c.16-.38.39-.71.67-.99.28-.28.61-.5.99-.67s.79-.25,1.22-.25.86.08,1.24.25.71.4.99.7.5.65.65,1.05c.16.4.23.85.23,1.33h-5.82c.02.36.11.69.26,1,.15.3.34.57.58.8.24.23.52.41.83.53.32.13.66.19,1.03.19.53,0,1-.11,1.4-.32s.74-.53,1-.97h.46ZM277.42,235.73c-.02-.36-.11-.69-.25-1-.14-.31-.34-.58-.58-.8-.24-.23-.52-.41-.83-.53-.32-.13-.66-.19-1.03-.19s-.71.06-1.03.19c-.32.13-.59.31-.83.53-.24.23-.43.5-.58.8-.15.31-.23.64-.26,1h5.39Z"/><path class="uuid-a7b02ae2-10a0-404a-a5ac-978da3062ddd" d="M279.1,232.92h.42v.9c.18-.29.4-.51.64-.67s.52-.23.85-.23h.13v.4h-.13c-.35,0-.64.11-.88.33-.23.22-.44.5-.61.83v4.44h-.42v-6Z"/><path class="uuid-a7b02ae2-10a0-404a-a5ac-978da3062ddd" d="M287.59,237.36c-.27.54-.66.95-1.17,1.24-.51.29-1.07.44-1.69.44-.43,0-.84-.08-1.22-.25s-.71-.39-.99-.67c-.28-.28-.5-.61-.67-.99-.16-.38-.25-.79-.25-1.22s.08-.84.25-1.22.39-.71.67-.99c.28-.28.61-.5.99-.67s.79-.25,1.22-.25.86.08,1.24.25.71.4.99.7c.28.3.5.65.65,1.05.16.4.23.85.23,1.33h-5.82c.02.36.11.69.26,1,.15.3.34.57.58.8.24.23.52.41.83.53.32.13.66.19,1.03.19.53,0,1-.11,1.4-.32.41-.21.74-.53,1-.97h.46ZM287.42,235.73c-.02-.36-.11-.69-.25-1-.14-.31-.34-.58-.58-.8-.24-.23-.52-.41-.83-.53-.32-.13-.66-.19-1.03-.19s-.71.06-1.03.19c-.32.13-.59.31-.83.53-.24.23-.43.5-.58.8-.15.31-.23.64-.26,1h5.39Z"/><path class="uuid-2061e19c-e1a7-4c20-aba5-29f540e13e9f" d="M23.26,101.12h-2.63v-1.68h7.08v1.68h-2.63v8.12h-1.82v-8.12Z"/><path class="uuid-2061e19c-e1a7-4c20-aba5-29f540e13e9f" d="M32.86,108.71c-.27.2-.57.36-.9.48s-.67.19-1.02.19c-.5,0-.98-.1-1.43-.29-.45-.19-.84-.45-1.16-.78-.33-.33-.59-.71-.78-1.16-.19-.44-.29-.92-.29-1.42s.1-.98.29-1.42.45-.83.78-1.16c.33-.33.71-.59,1.16-.78.45-.19.92-.29,1.43-.29.35,0,.68.06,1.02.19.33.13.63.29.9.48v-.53h1.68v7h-1.68v-.53ZM32.86,104.62s-.07-.09-.15-.19c-.08-.1-.2-.2-.35-.3-.15-.1-.33-.2-.55-.28s-.48-.13-.79-.13c-.29,0-.56.05-.8.16s-.46.25-.64.43c-.18.18-.32.39-.43.64-.1.24-.15.5-.15.78s.05.54.15.78c.1.24.25.45.43.64.18.18.39.33.64.43.24.11.51.16.8.16.33,0,.61-.05.84-.14.23-.09.42-.2.57-.32.17-.13.31-.28.43-.46v-2.21Z"/><path class="uuid-2061e19c-e1a7-4c20-aba5-29f540e13e9f" d="M38.81,110.45h.25c.73,0,1.25-.14,1.56-.42.31-.28.47-.7.47-1.26v-.06c-.27.2-.57.36-.9.48s-.67.19-1.02.19c-.5,0-.98-.1-1.43-.29-.45-.19-.84-.45-1.16-.78-.33-.33-.59-.71-.78-1.16-.19-.44-.29-.92-.29-1.42s.1-.98.29-1.42.45-.83.78-1.16c.33-.33.71-.59,1.16-.78.45-.19.92-.29,1.43-.29.35,0,.68.06,1.02.19.33.13.63.29.9.48v-.53h1.68v6.27c0,1.17-.31,2.05-.92,2.64-.61.59-1.54.89-2.79.89h-.25v-1.6ZM41.1,104.62s-.07-.09-.15-.19c-.08-.1-.2-.2-.35-.3-.15-.1-.33-.2-.55-.28s-.48-.13-.79-.13c-.29,0-.56.05-.8.16s-.46.25-.64.43c-.18.18-.32.39-.43.64-.1.24-.15.5-.15.78s.05.54.15.78c.1.24.25.45.43.64.18.18.39.33.64.43.24.11.51.16.8.16.33,0,.61-.05.84-.14.23-.09.42-.2.57-.32.17-.13.31-.28.43-.46v-2.21Z"/><path class="uuid-2061e19c-e1a7-4c20-aba5-29f540e13e9f" d="M54.33,107.14c-.16.37-.36.7-.62.98-.25.28-.53.51-.84.7-.31.19-.64.33-.99.42s-.7.14-1.04.14c-.5,0-.98-.1-1.41-.29-.44-.19-.82-.45-1.14-.78-.32-.33-.57-.71-.76-1.16-.18-.44-.27-.92-.27-1.42s.09-.98.27-1.42c.18-.44.43-.83.76-1.16.32-.33.7-.59,1.14-.78.44-.19.91-.29,1.41-.29s.96.08,1.37.23c.41.15.77.37,1.06.64.3.28.54.6.73.97s.32.76.39,1.18c.04.21.06.43.07.64s.01.44.01.68h-5.46c.03.19.1.37.22.54.12.17.26.32.43.45s.35.23.56.3c.21.08.41.11.62.11.3,0,.55-.04.75-.1.2-.07.37-.15.5-.25.15-.1.27-.22.36-.35h1.88ZM52.63,105.14c-.03-.2-.09-.38-.17-.56-.09-.18-.21-.33-.36-.47-.15-.14-.34-.24-.55-.32-.21-.08-.45-.12-.71-.12-.24,0-.47.04-.68.13s-.4.19-.56.33c-.16.14-.3.29-.41.46-.11.17-.17.36-.2.55h3.64Z"/><path class="uuid-2061e19c-e1a7-4c20-aba5-29f540e13e9f" d="M55.6,102.24h1.68v.53c.27-.2.57-.36.91-.48s.68-.19,1.04-.19c1,0,1.76.29,2.28.88.52.58.78,1.41.78,2.49v3.78h-1.71v-3.78c0-.53-.12-.96-.36-1.27-.24-.32-.6-.48-1.1-.48-.26,0-.49.03-.7.1-.21.07-.38.15-.54.25-.15.1-.28.2-.38.3s-.18.2-.22.28v4.61h-1.68v-7Z"/><path class="uuid-2061e19c-e1a7-4c20-aba5-29f540e13e9f" d="M67.05,99.44h1.82v3.85h4.09v-3.85h1.82v9.8h-1.82v-4.27h-4.09v4.27h-1.82v-9.8Z"/><path class="uuid-2061e19c-e1a7-4c20-aba5-29f540e13e9f" d="M76.46,99.44h2.81c.79,0,1.52.12,2.18.37.66.25,1.23.59,1.71,1.02.48.43.84.95,1.11,1.55s.39,1.25.39,1.95-.13,1.35-.38,1.95c-.26.6-.63,1.12-1.11,1.55-.48.43-1.06.77-1.74,1.02-.68.25-1.44.37-2.28.37h-2.69v-9.8ZM78.28,101.12v6.44h.88c.63,0,1.18-.08,1.64-.24.46-.16.83-.38,1.13-.67.3-.29.52-.63.67-1.02.14-.39.22-.82.22-1.29s-.07-.9-.22-1.29c-.15-.4-.37-.74-.67-1.02s-.68-.51-1.13-.67c-.46-.16-1-.24-1.64-.24h-.88Z"/><path class="uuid-2061e19c-e1a7-4c20-aba5-29f540e13e9f" d="M85.64,110.46c.29-.06.5-.2.62-.41s.19-.48.19-.81h-.81v-1.82h1.82v1.69c0,.35-.05.64-.15.88s-.24.43-.41.59c-.17.15-.36.27-.58.35-.22.08-.45.13-.68.16v-.63Z"/><path class="uuid-2061e19c-e1a7-4c20-aba5-29f540e13e9f" d="M92.29,99.09l4.63,5.13,4.6-5.13v10.15h-1.82v-5.7l-2.78,3.22-2.81-3.23v5.71h-1.82v-10.15Z"/><path class="uuid-2061e19c-e1a7-4c20-aba5-29f540e13e9f" d="M103.19,99.44h3.57c.54,0,1.01.07,1.42.21.41.14.74.33,1.02.58.27.25.47.54.6.87.13.33.2.69.2,1.07,0,.2-.03.38-.08.55s-.12.33-.2.47c-.08.14-.16.26-.25.36-.09.1-.17.19-.23.25.34.23.63.57.88,1,.25.43.38.92.38,1.47,0,.41-.07.8-.2,1.16-.14.36-.34.68-.62.95-.28.27-.63.48-1.06.64-.42.15-.92.23-1.49.23h-3.92v-9.8ZM107.75,103.28c.09-.09.19-.23.28-.4s.14-.4.14-.67c0-.3-.11-.55-.34-.76-.22-.21-.6-.32-1.13-.32h-1.69v2.16h2.74ZM107.01,107.56c.59,0,1.01-.13,1.27-.38.26-.25.38-.56.38-.92s-.12-.66-.36-.92c-.24-.26-.6-.39-1.1-.39h-2.2v2.6h2Z"/><path class="uuid-2061e19c-e1a7-4c20-aba5-29f540e13e9f" d="M115.67,98.95l5.17,10.29h-1.83l-.84-1.68h-4.75l-.77,1.68h-1.89l4.91-10.29ZM117.34,105.88l-1.63-3.22-1.5,3.22h3.13Z"/><path class="uuid-2061e19c-e1a7-4c20-aba5-29f540e13e9f" d="M121.33,110.46c.29-.06.5-.2.62-.41s.19-.48.19-.81h-.81v-1.82h1.82v1.69c0,.35-.05.64-.15.88s-.24.43-.41.59c-.17.15-.36.27-.58.35-.22.08-.45.13-.68.16v-.63Z"/><path class="uuid-2061e19c-e1a7-4c20-aba5-29f540e13e9f" d="M21.19,127.24v-7h1.68v.52c.24-.19.52-.34.83-.47s.63-.19.98-.19c1.06,0,1.84.32,2.32.97.27-.29.63-.52,1.06-.7.44-.18.89-.27,1.36-.27.96,0,1.69.28,2.18.83.49.56.74,1.35.74,2.39v3.92h-1.71v-3.92c0-.49-.12-.89-.36-1.18-.24-.29-.57-.43-.99-.43-.31,0-.57.05-.78.14-.21.09-.39.2-.52.31s-.23.22-.29.32c-.07.1-.1.16-.1.17v4.59h-1.71v-3.92c0-.49-.11-.89-.34-1.18-.23-.29-.56-.43-1-.43-.3,0-.55.04-.76.13-.21.08-.37.18-.5.29-.13.11-.23.21-.3.31s-.11.16-.12.19v4.62h-1.68Z"/><path class="uuid-2061e19c-e1a7-4c20-aba5-29f540e13e9f" d="M38.76,126.71c-.27.2-.57.36-.9.48s-.67.19-1.02.19c-.5,0-.98-.1-1.43-.29-.45-.19-.84-.45-1.16-.78-.33-.33-.59-.71-.78-1.15-.19-.44-.29-.92-.29-1.42s.1-.98.29-1.42.45-.83.78-1.16c.33-.33.71-.59,1.16-.78.45-.19.92-.29,1.43-.29.35,0,.68.06,1.02.19.33.13.63.29.9.48v-.53h1.68v7h-1.68v-.53ZM38.76,122.62s-.07-.09-.15-.19c-.08-.1-.2-.2-.35-.3-.15-.1-.33-.2-.55-.28s-.48-.13-.79-.13c-.29,0-.56.05-.8.16s-.46.25-.64.43c-.18.18-.32.39-.43.64-.1.24-.15.5-.15.78s.05.54.15.78c.1.24.25.45.43.64.18.18.39.33.64.43.24.11.51.16.8.16.33,0,.61-.05.84-.14.23-.09.42-.2.57-.32.17-.13.31-.28.43-.46v-2.21Z"/><path class="uuid-2061e19c-e1a7-4c20-aba5-29f540e13e9f" d="M43.2,124.86c0,.24.09.46.24.66.15.2.37.29.67.29.24,0,.45-.06.62-.2.17-.13.26-.31.26-.53s-.11-.38-.32-.48c-.21-.11-.56-.23-1.05-.36-.24-.06-.47-.15-.69-.25-.22-.1-.42-.24-.59-.4-.17-.16-.31-.35-.41-.57s-.15-.47-.15-.76c0-.34.06-.64.19-.9s.3-.49.51-.68c.21-.19.47-.33.76-.43.29-.1.6-.15.92-.15s.63.06.92.18c.29.12.54.28.76.49.21.21.38.44.51.71.13.27.19.55.19.84h-1.69c0-.21-.08-.38-.22-.5-.14-.12-.29-.17-.47-.17s-.33.06-.47.17c-.14.12-.2.26-.2.43,0,.21.11.37.32.49.21.12.59.26,1.13.41.24.07.47.15.68.25.21.1.39.23.55.38.15.15.27.33.36.54.09.21.13.46.13.75,0,.31-.07.6-.2.87-.14.28-.32.52-.55.73-.23.21-.5.38-.81.5-.31.12-.65.18-1,.18-.34,0-.66-.06-.96-.18s-.57-.29-.8-.51c-.23-.22-.42-.48-.57-.79-.15-.31-.23-.65-.25-1.02h1.68Z"/><path class="uuid-2061e19c-e1a7-4c20-aba5-29f540e13e9f" d="M48.22,118.41h1.68v1.83h1.4v1.6h-1.4v2.94c0,.58.28.87.83.87h.57v1.6h-.8c-.71,0-1.27-.18-1.67-.55-.41-.36-.61-.98-.61-1.86v-3h-1.04v-1.6h1.04v-1.83Z"/><path class="uuid-2061e19c-e1a7-4c20-aba5-29f540e13e9f" d="M58.93,125.14c-.16.37-.36.7-.62.98-.25.28-.53.51-.84.7-.31.19-.64.33-.99.42-.35.09-.7.14-1.04.14-.5,0-.98-.1-1.41-.29-.44-.19-.82-.45-1.14-.78-.32-.33-.57-.71-.76-1.15-.18-.44-.27-.92-.27-1.42s.09-.98.27-1.42c.18-.44.43-.83.76-1.16.32-.33.7-.59,1.14-.78.44-.19.91-.29,1.41-.29s.96.08,1.37.23c.41.15.77.37,1.06.64.3.28.54.6.73.97s.32.76.39,1.18c.04.21.06.43.07.64s.01.44.01.68h-5.46c.03.19.1.37.22.54.12.17.26.32.43.45s.35.23.56.3c.21.08.41.11.62.11.3,0,.55-.04.75-.1.2-.07.37-.15.5-.25.15-.1.27-.22.36-.35h1.88ZM57.24,123.14c-.03-.2-.09-.38-.17-.56-.09-.18-.21-.33-.36-.47-.15-.14-.34-.24-.55-.32-.21-.08-.45-.12-.71-.12-.24,0-.47.04-.68.13s-.4.19-.56.33c-.16.14-.3.29-.41.46-.11.17-.17.36-.2.55h3.64Z"/><path class="uuid-2061e19c-e1a7-4c20-aba5-29f540e13e9f" d="M60.21,120.24h1.68v.78c.18-.21.39-.4.64-.55.25-.15.55-.23.9-.23h.48v1.6h-.36c-.35,0-.67.11-.98.32-.31.21-.53.51-.67.9v4.19h-1.68v-7Z"/><path class="uuid-2061e19c-e1a7-4c20-aba5-29f540e13e9f" d="M74.89,125.14c-.16.37-.36.7-.62.98-.25.28-.53.51-.84.7-.31.19-.64.33-.99.42-.35.09-.7.14-1.04.14-.5,0-.98-.1-1.41-.29-.44-.19-.82-.45-1.14-.78-.32-.33-.57-.71-.76-1.15-.18-.44-.27-.92-.27-1.42s.09-.98.27-1.42c.18-.44.43-.83.76-1.16.32-.33.7-.59,1.14-.78.44-.19.91-.29,1.41-.29s.96.08,1.37.23c.41.15.77.37,1.06.64.3.28.54.6.73.97s.32.76.39,1.18c.04.21.06.43.07.64s.01.44.01.68h-5.46c.03.19.1.37.22.54.12.17.26.32.43.45s.35.23.56.3c.21.08.41.11.62.11.3,0,.55-.04.75-.1.2-.07.37-.15.5-.25.15-.1.27-.22.36-.35h1.88ZM73.2,123.14c-.03-.2-.09-.38-.17-.56-.09-.18-.21-.33-.36-.47-.15-.14-.34-.24-.55-.32-.21-.08-.45-.12-.71-.12-.24,0-.47.04-.68.13s-.4.19-.56.33c-.16.14-.3.29-.41.46-.11.17-.17.36-.2.55h3.64Z"/><path class="uuid-2061e19c-e1a7-4c20-aba5-29f540e13e9f" d="M76.17,117.44h1.68v9.8h-1.68v-9.8Z"/><path class="uuid-2061e19c-e1a7-4c20-aba5-29f540e13e9f" d="M79.25,117.44h1.68v9.8h-1.68v-9.8Z"/><path class="uuid-2061e19c-e1a7-4c20-aba5-29f540e13e9f" d="M89.12,125.14c-.16.37-.36.7-.62.98-.25.28-.53.51-.84.7-.31.19-.64.33-.99.42-.35.09-.7.14-1.04.14-.5,0-.98-.1-1.41-.29-.44-.19-.82-.45-1.14-.78-.32-.33-.57-.71-.76-1.15-.18-.44-.27-.92-.27-1.42s.09-.98.27-1.42c.18-.44.43-.83.76-1.16.32-.33.7-.59,1.14-.78.44-.19.91-.29,1.41-.29s.96.08,1.37.23c.41.15.77.37,1.06.64.3.28.54.6.73.97s.32.76.39,1.18c.04.21.06.43.07.64s.01.44.01.68h-5.46c.03.19.1.37.22.54.12.17.26.32.43.45s.35.23.56.3c.21.08.41.11.62.11.3,0,.55-.04.75-.1.2-.07.37-.15.5-.25.15-.1.27-.22.36-.35h1.88ZM87.42,123.14c-.03-.2-.09-.38-.17-.56-.09-.18-.21-.33-.36-.47-.15-.14-.34-.24-.55-.32-.21-.08-.45-.12-.71-.12-.24,0-.47.04-.68.13s-.4.19-.56.33c-.16.14-.3.29-.41.46-.11.17-.17.36-.2.55h3.64Z"/><path class="uuid-2061e19c-e1a7-4c20-aba5-29f540e13e9f" d="M90.39,120.24h1.68v.78c.18-.21.39-.4.64-.55.25-.15.55-.23.9-.23h.48v1.6h-.36c-.35,0-.67.11-.98.32-.31.21-.53.51-.67.9v4.19h-1.68v-7Z"/><path class="uuid-2061e19c-e1a7-4c20-aba5-29f540e13e9f" d="M105.08,125.14c-.16.37-.36.7-.62.98-.25.28-.53.51-.84.7-.31.19-.64.33-.99.42-.35.09-.7.14-1.04.14-.5,0-.98-.1-1.41-.29-.44-.19-.82-.45-1.14-.78-.32-.33-.57-.71-.76-1.15-.18-.44-.27-.92-.27-1.42s.09-.98.27-1.42c.18-.44.43-.83.76-1.16.32-.33.7-.59,1.14-.78.44-.19.91-.29,1.41-.29s.96.08,1.37.23c.41.15.77.37,1.06.64.3.28.54.6.73.97s.32.76.39,1.18c.04.21.06.43.07.64s.01.44.01.68h-5.46c.03.19.1.37.22.54.12.17.26.32.43.45s.35.23.56.3c.21.08.41.11.62.11.3,0,.55-.04.75-.1.2-.07.37-.15.5-.25.15-.1.27-.22.36-.35h1.88ZM103.38,123.14c-.03-.2-.09-.38-.17-.56-.09-.18-.21-.33-.36-.47-.15-.14-.34-.24-.55-.32-.21-.08-.45-.12-.71-.12-.24,0-.47.04-.68.13s-.4.19-.56.33c-.16.14-.3.29-.41.46-.11.17-.17.36-.2.55h3.64Z"/><path class="uuid-2061e19c-e1a7-4c20-aba5-29f540e13e9f" d="M106.83,118.41h1.68v1.83h1.4v1.6h-1.4v2.94c0,.58.28.87.83.87h.57v1.6h-.8c-.71,0-1.27-.18-1.67-.55-.41-.36-.61-.98-.61-1.86v-3h-1.04v-1.6h1.04v-1.83Z"/><path class="uuid-2061e19c-e1a7-4c20-aba5-29f540e13e9f" d="M121.18,125.14c-.16.37-.36.7-.62.98-.25.28-.53.51-.84.7-.31.19-.64.33-.99.42-.35.09-.7.14-1.04.14-.5,0-.98-.1-1.41-.29-.44-.19-.82-.45-1.14-.78-.32-.33-.57-.71-.76-1.15-.18-.44-.27-.92-.27-1.42s.09-.98.27-1.42c.18-.44.43-.83.76-1.16.32-.33.7-.59,1.14-.78.44-.19.91-.29,1.41-.29s.96.08,1.37.23c.41.15.77.37,1.06.64.3.28.54.6.73.97s.32.76.39,1.18c.04.21.06.43.07.64s.01.44.01.68h-5.46c.03.19.1.37.22.54.12.17.26.32.43.45s.35.23.56.3c.21.08.41.11.62.11.3,0,.55-.04.75-.1.2-.07.37-.15.5-.25.15-.1.27-.22.36-.35h1.88ZM119.48,123.14c-.03-.2-.09-.38-.17-.56-.09-.18-.21-.33-.36-.47-.15-.14-.34-.24-.55-.32-.21-.08-.45-.12-.71-.12-.24,0-.47.04-.68.13s-.4.19-.56.33c-.16.14-.3.29-.41.46-.11.17-.17.36-.2.55h3.64Z"/><path class="uuid-2061e19c-e1a7-4c20-aba5-29f540e13e9f" d="M122.45,120.24h1.68v.53c.27-.2.57-.36.91-.48s.68-.19,1.04-.19c1,0,1.76.29,2.28.88.52.58.78,1.41.78,2.49v3.78h-1.71v-3.78c0-.53-.12-.96-.36-1.27-.24-.32-.6-.48-1.1-.48-.26,0-.49.03-.7.1-.21.07-.38.15-.54.25-.15.1-.28.2-.38.3s-.18.2-.22.28v4.61h-1.68v-7Z"/><path class="uuid-2061e19c-e1a7-4c20-aba5-29f540e13e9f" d="M130.4,117.44h1.68v9.8h-1.68v-9.8ZM132.29,123.6l2.81-3.35h2.19l-2.81,3.36,3.11,3.64h-2.23l-3.06-3.65Z"/><path class="uuid-2061e19c-e1a7-4c20-aba5-29f540e13e9f" d="M144.18,125.14c-.16.37-.36.7-.62.98-.25.28-.53.51-.84.7-.31.19-.64.33-.99.42-.35.09-.7.14-1.04.14-.5,0-.98-.1-1.41-.29-.44-.19-.82-.45-1.14-.78-.32-.33-.57-.71-.76-1.15-.18-.44-.27-.92-.27-1.42s.09-.98.27-1.42c.18-.44.43-.83.76-1.16.32-.33.7-.59,1.14-.78.44-.19.91-.29,1.41-.29s.96.08,1.37.23c.41.15.77.37,1.06.64.3.28.54.6.73.97s.32.76.39,1.18c.04.21.06.43.07.64s.01.44.01.68h-5.46c.03.19.1.37.22.54.12.17.26.32.43.45s.35.23.56.3c.21.08.41.11.62.11.3,0,.55-.04.75-.1.2-.07.37-.15.5-.25.15-.1.27-.22.36-.35h1.88ZM142.48,123.14c-.03-.2-.09-.38-.17-.56-.09-.18-.21-.33-.36-.47-.15-.14-.34-.24-.55-.32-.21-.08-.45-.12-.71-.12-.24,0-.47.04-.68.13s-.4.19-.56.33c-.16.14-.3.29-.41.46-.11.17-.17.36-.2.55h3.64Z"/><path class="uuid-2061e19c-e1a7-4c20-aba5-29f540e13e9f" d="M145.45,117.44h1.68v9.8h-1.68v-9.8Z"/><path class="uuid-2061e19c-e1a7-4c20-aba5-29f540e13e9f" d="M149.01,118.41h1.68v1.83h1.4v1.6h-1.4v2.94c0,.58.28.87.83.87h.57v1.6h-.8c-.71,0-1.27-.18-1.67-.55-.41-.36-.61-.98-.61-1.86v-3h-1.04v-1.6h1.04v-1.83Z"/><path class="uuid-2061e19c-e1a7-4c20-aba5-29f540e13e9f" d="M153.68,121.84h-1.04v-1.6h1.04v-.25c0-.43.06-.8.18-1.12.12-.32.29-.58.5-.79.21-.21.47-.37.76-.48.29-.11.62-.16.97-.16h.66v1.6h-.52c-.1,0-.21.02-.31.05-.1.03-.2.08-.28.15s-.15.16-.21.27c-.06.11-.08.24-.08.4v.34h1.4v1.6h-1.4v5.4h-1.68v-5.4Z"/><path class="uuid-2061e19c-e1a7-4c20-aba5-29f540e13e9f" d="M162.75,126.71c-.27.2-.57.36-.9.48-.33.13-.67.19-1.02.19-.5,0-.98-.1-1.43-.29-.45-.19-.83-.45-1.16-.78s-.59-.71-.78-1.15c-.19-.44-.29-.92-.29-1.42s.1-.98.29-1.42c.19-.44.45-.83.78-1.16.33-.33.71-.59,1.16-.78.45-.19.92-.29,1.43-.29.35,0,.68.06,1.02.19.33.13.63.29.9.48v-.53h1.68v7h-1.68v-.53ZM162.75,122.62s-.07-.09-.15-.19-.2-.2-.35-.3-.33-.2-.55-.28-.48-.13-.79-.13c-.29,0-.56.05-.8.16-.24.11-.46.25-.64.43-.18.18-.33.39-.43.64-.1.24-.15.5-.15.78s.05.54.15.78.25.45.43.64c.18.18.39.33.64.43.24.11.51.16.8.16.33,0,.61-.05.84-.14s.42-.2.57-.32c.17-.13.31-.28.43-.46v-2.21Z"/><path class="uuid-2061e19c-e1a7-4c20-aba5-29f540e13e9f" d="M168.7,128.45h.25c.73,0,1.25-.14,1.56-.42s.47-.7.47-1.26v-.06c-.27.2-.57.36-.9.48-.33.13-.67.19-1.02.19-.5,0-.98-.1-1.43-.29-.45-.19-.83-.45-1.16-.78s-.59-.71-.78-1.15c-.19-.44-.29-.92-.29-1.42s.1-.98.29-1.42c.19-.44.45-.83.78-1.16.33-.33.71-.59,1.16-.78.45-.19.92-.29,1.43-.29.35,0,.68.06,1.02.19.33.13.63.29.9.48v-.53h1.68v6.27c0,1.17-.31,2.05-.92,2.64s-1.54.89-2.79.89h-.25v-1.6ZM170.99,122.62s-.07-.09-.15-.19-.2-.2-.35-.3-.33-.2-.55-.28-.48-.13-.79-.13c-.29,0-.56.05-.8.16-.24.11-.46.25-.64.43-.18.18-.33.39-.43.64-.1.24-.15.5-.15.78s.05.54.15.78.25.45.43.64c.18.18.39.33.64.43.24.11.51.16.8.16.33,0,.61-.05.84-.14s.42-.2.57-.32c.17-.13.31-.28.43-.46v-2.21Z"/><path class="uuid-2061e19c-e1a7-4c20-aba5-29f540e13e9f" d="M21.19,138.24h1.68v.53c.27-.2.57-.36.9-.48s.67-.19,1.02-.19c.5,0,.98.1,1.43.29.45.19.83.45,1.16.78.33.33.59.71.78,1.16.19.44.29.92.29,1.42s-.1.98-.29,1.42c-.19.44-.45.83-.78,1.16-.33.33-.71.59-1.16.78-.45.19-.92.29-1.43.29-.35,0-.7-.06-1.02-.19s-.63-.29-.9-.48v3.33h-1.68v-9.8ZM22.87,142.84c.12.18.27.33.43.46.15.12.34.23.57.32.23.09.51.14.84.14.29,0,.56-.05.8-.16s.46-.25.64-.43.32-.39.43-.64c.1-.24.15-.5.15-.78s-.05-.54-.15-.78c-.1-.24-.24-.46-.43-.64s-.39-.33-.64-.43c-.24-.11-.51-.16-.8-.16s-.56.04-.78.12c-.22.08-.4.17-.55.27s-.27.2-.35.3c-.08.1-.14.17-.17.2v2.21Z"/><path class="uuid-2061e19c-e1a7-4c20-aba5-29f540e13e9f" d="M34.57,144.71c-.27.2-.57.36-.9.48s-.67.19-1.02.19c-.5,0-.98-.1-1.43-.29-.45-.19-.84-.45-1.16-.78s-.59-.71-.78-1.16-.29-.92-.29-1.42.1-.98.29-1.42.45-.83.78-1.16.71-.58,1.16-.78c.45-.19.92-.29,1.43-.29.35,0,.68.06,1.02.19.33.13.63.29.9.48v-.53h1.68v7h-1.68v-.53ZM34.57,140.62s-.07-.09-.15-.19c-.08-.1-.2-.2-.35-.3-.15-.1-.33-.2-.55-.28s-.48-.13-.79-.13c-.29,0-.56.05-.8.16-.24.11-.46.25-.64.43-.18.18-.32.39-.43.64-.1.24-.15.5-.15.78s.05.54.15.78c.1.24.25.46.43.64.18.18.39.33.64.43s.51.16.8.16c.33,0,.61-.05.84-.14.23-.09.42-.2.57-.32.17-.13.31-.28.43-.46v-2.21ZM31.44,135.95c0-.41.14-.75.41-1.02.27-.27.61-.41,1.02-.41s.75.14,1.02.41c.27.27.41.61.41,1.02s-.14.75-.41,1.02c-.27.27-.61.41-1.02.41s-.75-.13-1.02-.41c-.27-.27-.41-.61-.41-1.02ZM32.86,136.45c.14,0,.26-.05.35-.15.09-.1.14-.22.14-.36s-.05-.26-.14-.36c-.09-.1-.21-.15-.35-.15s-.26.05-.35.15c-.09.1-.14.22-.14.36s.05.26.14.36c.09.1.21.15.35.15Z"/><path class="uuid-2061e19c-e1a7-4c20-aba5-29f540e13e9f" d="M45.08,134.95l5.17,10.29h-1.83l-.84-1.68h-4.75l-.77,1.68h-1.89l4.91-10.29ZM46.75,141.88l-1.63-3.22-1.5,3.22h3.13Z"/><path class="uuid-2061e19c-e1a7-4c20-aba5-29f540e13e9f" d="M55.54,144.71c-.27.2-.57.36-.9.48s-.67.19-1.02.19c-.5,0-.98-.1-1.43-.29-.45-.19-.84-.45-1.16-.78s-.59-.71-.78-1.16-.29-.92-.29-1.42.1-.98.29-1.42.45-.83.78-1.16.71-.58,1.16-.78c.45-.19.92-.29,1.43-.29.35,0,.68.06,1.02.19.33.13.63.29.9.48v-.53h1.68v7h-1.68v-.53ZM55.54,140.62s-.07-.09-.15-.19c-.08-.1-.2-.2-.35-.3-.15-.1-.33-.2-.55-.28s-.48-.13-.79-.13c-.29,0-.56.05-.8.16-.24.11-.46.25-.64.43-.18.18-.32.39-.43.64-.1.24-.15.5-.15.78s.05.54.15.78c.1.24.25.46.43.64.18.18.39.33.64.43s.51.16.8.16c.33,0,.61-.05.84-.14.23-.09.42-.2.57-.32.17-.13.31-.28.43-.46v-2.21Z"/><path class="uuid-2061e19c-e1a7-4c20-aba5-29f540e13e9f" d="M58.62,138.24h1.68v.78c.18-.21.39-.4.64-.55.25-.15.55-.23.9-.23h.48v1.6h-.36c-.35,0-.67.11-.98.32-.31.21-.53.51-.67.9v4.19h-1.68v-7Z"/><path class="uuid-2061e19c-e1a7-4c20-aba5-29f540e13e9f" d="M63.16,135.44h1.68v3.33c.27-.2.57-.36.91-.48s.68-.19,1.04-.19c1.08,0,1.89.29,2.42.88.53.58.79,1.41.79,2.48v3.78h-1.71v-3.78c0-.53-.12-.96-.36-1.27s-.65-.48-1.23-.48c-.26,0-.49.03-.7.1-.21.07-.38.15-.54.25-.15.1-.28.2-.38.3-.1.1-.18.2-.22.28v4.61h-1.68v-9.8Z"/><path class="uuid-2061e19c-e1a7-4c20-aba5-29f540e13e9f" d="M76.12,145.24v-.5c-.24.19-.52.34-.83.46-.31.12-.64.18-.97.18-1.08,0-1.86-.29-2.35-.88-.48-.58-.72-1.41-.72-2.48v-3.78h1.71v3.78c0,.27.02.51.06.73s.12.4.23.55c.11.15.26.27.45.35s.42.13.71.13.54-.04.75-.13c.21-.08.38-.18.52-.28s.28-.27.44-.5v-4.62h1.68v7h-1.68Z"/><path class="uuid-2061e19c-e1a7-4c20-aba5-29f540e13e9f" d="M80.56,142.86c0,.24.09.46.24.66.15.2.37.29.67.29.24,0,.45-.07.62-.2s.26-.31.26-.53-.11-.38-.32-.48-.56-.23-1.05-.36c-.24-.07-.47-.15-.69-.25-.22-.1-.42-.24-.59-.4-.17-.16-.31-.35-.41-.57s-.15-.47-.15-.76c0-.34.06-.64.19-.9s.3-.49.51-.68c.21-.19.47-.33.76-.43.29-.1.6-.15.92-.15s.63.06.92.18c.29.12.54.29.76.49.21.21.38.44.51.71.13.27.19.55.19.84h-1.69c0-.21-.08-.38-.22-.5-.14-.12-.29-.17-.47-.17s-.33.06-.47.17c-.14.12-.2.26-.2.43,0,.21.11.37.32.49.21.12.59.26,1.13.41.24.07.47.15.68.25s.39.23.55.38c.15.15.27.33.36.54.09.21.13.46.13.75,0,.31-.07.6-.2.87-.14.27-.32.52-.55.73-.23.21-.5.38-.81.5-.31.12-.65.18-1,.18-.34,0-.66-.06-.96-.18s-.57-.29-.8-.51c-.23-.22-.42-.48-.57-.79-.15-.31-.23-.65-.25-1.02h1.68Z"/><path class="uuid-2061e19c-e1a7-4c20-aba5-29f540e13e9f" d="M88.61,135.44h3.57c.54,0,1.01.07,1.42.21.41.14.74.33,1.02.58.27.25.47.54.6.87.13.33.2.69.2,1.07,0,.2-.03.38-.08.55-.06.17-.12.33-.2.47s-.16.26-.25.36c-.09.1-.17.19-.23.25.34.23.63.57.88,1s.38.92.38,1.47c0,.41-.07.8-.2,1.16-.14.36-.34.68-.62.95-.28.27-.63.48-1.06.64s-.92.23-1.49.23h-3.92v-9.8ZM93.18,139.28c.09-.09.19-.23.28-.4.09-.18.14-.4.14-.67,0-.3-.11-.55-.34-.76-.22-.21-.6-.32-1.13-.32h-1.69v2.16h2.74ZM92.43,143.56c.59,0,1.01-.13,1.27-.38.26-.25.38-.56.38-.92s-.12-.66-.36-.92c-.24-.26-.6-.39-1.1-.39h-2.2v2.6h2Z"/><path class="uuid-2061e19c-e1a7-4c20-aba5-29f540e13e9f" d="M98.75,142.37c0,.19.04.36.11.53.07.17.17.32.3.45s.28.24.45.31c.17.08.37.12.58.12.48,0,.85-.11,1.11-.32s.4-.51.4-.88c0-.19-.05-.35-.15-.49-.1-.14-.24-.26-.41-.37s-.36-.21-.57-.3-.42-.17-.64-.25c-.36-.14-.71-.29-1.04-.46-.33-.16-.62-.36-.87-.59s-.45-.51-.6-.84c-.14-.33-.22-.73-.22-1.21,0-.4.07-.78.22-1.12.15-.35.35-.65.62-.91.27-.26.58-.46.94-.61.36-.15.76-.22,1.2-.22s.84.07,1.2.21c.36.14.67.33.93.57.26.24.46.53.6.87.14.34.21.7.21,1.09h-1.82c0-.3-.12-.55-.32-.76-.21-.21-.47-.31-.8-.31s-.6.11-.82.32c-.22.21-.33.48-.33.8,0,.17.04.32.13.45.09.13.21.25.36.36.15.11.32.21.52.3.2.09.41.19.62.28.36.17.72.33,1.06.49.35.16.65.35.91.57.26.22.47.48.63.78.16.3.24.68.24,1.13s-.08.89-.25,1.27-.4.71-.7.98c-.3.27-.65.48-1.06.62-.41.14-.85.22-1.32.22s-.9-.07-1.29-.22c-.4-.14-.74-.35-1.03-.62-.29-.27-.52-.6-.69-.98s-.25-.81-.25-1.27h1.82Z"/><path class="uuid-2061e19c-e1a7-4c20-aba5-29f540e13e9f" d="M106.18,142.37c0,.19.04.36.11.53.07.17.17.32.3.45s.28.24.45.31c.17.08.37.12.58.12.48,0,.85-.11,1.11-.32s.4-.51.4-.88c0-.19-.05-.35-.15-.49-.1-.14-.24-.26-.41-.37s-.36-.21-.57-.3-.42-.17-.64-.25c-.36-.14-.71-.29-1.04-.46-.33-.16-.62-.36-.87-.59s-.45-.51-.6-.84c-.14-.33-.22-.73-.22-1.21,0-.4.07-.78.22-1.12.15-.35.35-.65.62-.91.27-.26.58-.46.94-.61.36-.15.76-.22,1.2-.22s.84.07,1.2.21c.36.14.67.33.93.57.26.24.46.53.6.87.14.34.21.7.21,1.09h-1.82c0-.3-.12-.55-.32-.76-.21-.21-.47-.31-.8-.31s-.6.11-.82.32c-.22.21-.33.48-.33.8,0,.17.04.32.13.45.09.13.21.25.36.36.15.11.32.21.52.3.2.09.41.19.62.28.36.17.72.33,1.06.49.35.16.65.35.91.57.26.22.47.48.63.78.16.3.24.68.24,1.13s-.08.89-.25,1.27-.4.71-.7.98c-.3.27-.65.48-1.06.62-.41.14-.85.22-1.32.22s-.9-.07-1.29-.22c-.4-.14-.74-.35-1.03-.62-.29-.27-.52-.6-.69-.98s-.25-.81-.25-1.27h1.82Z"/><path class="uuid-2061e19c-e1a7-4c20-aba5-29f540e13e9f" d="M24.57,169.86l4.43,8.82h-1.57l-.72-1.44h-4.07l-.66,1.44h-1.62l4.21-8.82ZM26.01,175.8l-1.4-2.76-1.29,2.76h2.68Z"/><path class="uuid-2061e19c-e1a7-4c20-aba5-29f540e13e9f" d="M29.49,172.68h1.44v.46c.23-.17.49-.31.78-.41.29-.11.58-.16.89-.16.86,0,1.51.25,1.96.75.45.5.67,1.21.67,2.13v3.24h-1.46v-3.24c0-.46-.1-.82-.31-1.09-.2-.27-.52-.41-.94-.41-.22,0-.42.03-.6.08-.18.06-.33.13-.46.21s-.24.17-.33.26c-.09.09-.15.17-.19.24v3.95h-1.44v-6Z"/><path class="uuid-2061e19c-e1a7-4c20-aba5-29f540e13e9f" d="M37.47,176.64c0,.21.08.4.2.56s.32.25.58.25c.21,0,.39-.06.53-.17.15-.11.22-.26.22-.46s-.09-.32-.28-.41-.48-.19-.9-.31c-.21-.06-.41-.13-.59-.22s-.36-.2-.5-.34-.26-.3-.35-.49c-.08-.18-.13-.4-.13-.65,0-.29.05-.55.16-.77.11-.23.25-.42.44-.58s.4-.28.65-.37.51-.13.79-.13.54.05.79.16c.25.1.46.24.65.42.18.18.33.38.44.61.11.23.16.47.16.72h-1.45c0-.18-.07-.33-.19-.43-.12-.1-.25-.15-.4-.15s-.29.05-.4.15c-.12.1-.17.22-.17.37,0,.18.09.32.28.42.18.1.51.22.97.35.21.06.4.13.58.22.18.09.34.2.47.33.13.13.24.28.31.46s.11.39.11.64c0,.26-.06.51-.17.75-.12.24-.27.44-.47.62-.2.18-.43.32-.7.42s-.55.16-.86.16c-.29,0-.56-.05-.82-.16-.26-.1-.49-.25-.69-.44-.2-.19-.36-.41-.49-.68s-.2-.56-.22-.88h1.44Z"/><path class="uuid-2061e19c-e1a7-4c20-aba5-29f540e13e9f" d="M41.7,177.66c-.22-.27-.39-.57-.51-.91s-.18-.69-.18-1.07c0-.43.08-.84.25-1.22s.39-.71.67-.99c.28-.28.61-.5.99-.67.38-.16.79-.25,1.22-.25.28,0,.55.03.8.1.25.07.49.17.73.29l.23-.28h1.51l-.87,1.02c.23.27.41.57.53.91s.19.69.19,1.07c0,.43-.08.84-.25,1.22-.16.38-.39.71-.67.99s-.61.5-.99.67c-.38.16-.79.25-1.22.25-.55,0-1.06-.13-1.52-.38l-.22.26h-1.52l.84-1.02ZM44.76,174.02c-.1-.04-.2-.07-.3-.09-.1-.02-.21-.03-.33-.03-.25,0-.48.05-.69.14s-.39.22-.54.38c-.15.16-.27.35-.36.56-.08.22-.13.45-.13.7,0,.32.07.62.21.89l2.13-2.54ZM43.5,177.34c.19.07.4.11.63.11.25,0,.48-.05.68-.14.2-.09.38-.22.54-.38s.27-.35.35-.56c.08-.22.13-.45.13-.7,0-.32-.07-.61-.21-.86l-2.11,2.53Z"/><path class="uuid-2061e19c-e1a7-4c20-aba5-29f540e13e9f" d="M50.55,179.71h.22c.62,0,1.07-.12,1.34-.36s.4-.6.4-1.08v-.05c-.23.17-.49.31-.77.41-.28.11-.57.16-.88.16-.43,0-.84-.08-1.22-.25-.38-.16-.72-.39-1-.67-.28-.28-.5-.61-.67-.99s-.25-.79-.25-1.22.08-.84.25-1.22.39-.71.67-.99c.28-.28.61-.5,1-.67.38-.16.79-.25,1.22-.25.3,0,.59.05.87.16.28.11.54.25.77.41v-.46h1.44v5.38c0,1-.26,1.75-.79,2.26s-1.32.76-2.39.76h-.22v-1.37ZM52.5,174.72s-.06-.08-.13-.16c-.07-.08-.17-.17-.3-.26s-.29-.17-.47-.24-.41-.11-.68-.11c-.25,0-.48.05-.68.14s-.39.22-.55.37c-.16.16-.28.34-.37.55s-.13.43-.13.67.04.46.13.67.21.39.37.55c.16.16.34.28.55.37s.44.14.68.14c.28,0,.52-.04.72-.12.2-.08.36-.17.49-.28.14-.11.27-.24.37-.4v-1.9Z"/><path class="uuid-2061e19c-e1a7-4c20-aba5-29f540e13e9f" d="M55.14,172.68h1.44v.46c.23-.17.49-.31.78-.41.29-.11.58-.16.89-.16.86,0,1.51.25,1.96.75.45.5.67,1.21.67,2.13v3.24h-1.46v-3.24c0-.46-.1-.82-.31-1.09-.2-.27-.52-.41-.94-.41-.22,0-.42.03-.6.08-.18.06-.33.13-.46.21s-.24.17-.33.26c-.09.09-.15.17-.19.24v3.95h-1.44v-6Z"/><path class="uuid-2061e19c-e1a7-4c20-aba5-29f540e13e9f" d="M61.96,170.28h1.44v1.44h-1.44v-1.44ZM61.96,172.68h1.44v6h-1.44v-6Z"/><path class="uuid-2061e19c-e1a7-4c20-aba5-29f540e13e9f" d="M64.6,172.68h1.44v.46c.23-.17.49-.31.78-.41.29-.11.58-.16.89-.16.86,0,1.51.25,1.96.75.45.5.67,1.21.67,2.13v3.24h-1.46v-3.24c0-.46-.1-.82-.31-1.09-.2-.27-.52-.41-.94-.41-.22,0-.42.03-.6.08-.18.06-.33.13-.46.21s-.24.17-.33.26c-.09.09-.15.17-.19.24v3.95h-1.44v-6Z"/><path class="uuid-2061e19c-e1a7-4c20-aba5-29f540e13e9f" d="M73.88,179.71h.22c.62,0,1.07-.12,1.34-.36s.4-.6.4-1.08v-.05c-.23.17-.49.31-.77.41-.28.11-.57.16-.88.16-.43,0-.84-.08-1.22-.25-.38-.16-.72-.39-1-.67-.28-.28-.5-.61-.67-.99s-.25-.79-.25-1.22.08-.84.25-1.22.39-.71.67-.99c.28-.28.61-.5,1-.67.38-.16.79-.25,1.22-.25.3,0,.59.05.87.16.28.11.54.25.77.41v-.46h1.44v5.38c0,1-.26,1.75-.79,2.26s-1.32.76-2.39.76h-.22v-1.37ZM75.83,174.72s-.06-.08-.13-.16c-.07-.08-.17-.17-.3-.26s-.29-.17-.47-.24-.41-.11-.68-.11c-.25,0-.48.05-.68.14s-.39.22-.55.37c-.16.16-.28.34-.37.55s-.13.43-.13.67.04.46.13.67.21.39.37.55c.16.16.34.28.55.37s.44.14.68.14c.28,0,.52-.04.72-.12.2-.08.36-.17.49-.28.14-.11.27-.24.37-.4v-1.9Z"/><path class="uuid-2061e19c-e1a7-4c20-aba5-29f540e13e9f" d="M79.64,176.64c0,.21.08.4.2.56s.32.25.58.25c.21,0,.39-.06.53-.17.15-.11.22-.26.22-.46s-.09-.32-.28-.41-.48-.19-.9-.31c-.21-.06-.41-.13-.59-.22s-.36-.2-.5-.34-.26-.3-.35-.49c-.08-.18-.13-.4-.13-.65,0-.29.05-.55.16-.77.11-.23.25-.42.44-.58s.4-.28.65-.37.51-.13.79-.13.54.05.79.16c.25.1.46.24.65.42.18.18.33.38.44.61.11.23.16.47.16.72h-1.45c0-.18-.07-.33-.19-.43-.12-.1-.25-.15-.4-.15s-.29.05-.4.15c-.12.1-.17.22-.17.37,0,.18.09.32.28.42.18.1.51.22.97.35.21.06.4.13.58.22.18.09.34.2.47.33.13.13.24.28.31.46s.11.39.11.64c0,.26-.06.51-.17.75-.12.24-.27.44-.47.62-.2.18-.43.32-.7.42s-.55.16-.86.16c-.29,0-.56-.05-.82-.16-.26-.1-.49-.25-.69-.44-.2-.19-.36-.41-.49-.68s-.2-.56-.22-.88h1.44Z"/><path class="uuid-2061e19c-e1a7-4c20-aba5-29f540e13e9f" d="M83.94,174.04h-.89v-1.37h.89v-.22c0-.37.05-.69.16-.96.1-.27.25-.5.43-.68.18-.18.4-.32.65-.41s.53-.14.83-.14h.56v1.37h-.44c-.09,0-.18.01-.26.04-.09.03-.17.07-.24.13-.07.06-.13.14-.18.23s-.07.21-.07.34v.29h1.2v1.37h-1.2v4.63h-1.44v-4.63Z"/><path class="uuid-2061e19c-e1a7-4c20-aba5-29f540e13e9f" d="M87.42,172.68h1.44v.67c.15-.18.33-.34.55-.47s.47-.2.77-.2h.41v1.37h-.31c-.3,0-.58.09-.84.28-.26.18-.46.44-.58.77v3.59h-1.44v-6Z"/><path class="uuid-2061e19c-e1a7-4c20-aba5-29f540e13e9f" d="M91.31,170.28h1.44v1.44h-1.44v-1.44ZM91.31,172.68h1.44v6h-1.44v-6Z"/><path class="uuid-2061e19c-e1a7-4c20-aba5-29f540e13e9f" d="M95.11,176.64c0,.21.08.4.2.56s.32.25.58.25c.21,0,.39-.06.53-.17.15-.11.22-.26.22-.46s-.09-.32-.28-.41-.48-.19-.9-.31c-.21-.06-.41-.13-.59-.22s-.36-.2-.5-.34-.26-.3-.35-.49c-.08-.18-.13-.4-.13-.65,0-.29.05-.55.16-.77.11-.23.25-.42.44-.58s.4-.28.65-.37.51-.13.79-.13.54.05.79.16c.25.1.46.24.65.42.18.18.33.38.44.61.11.23.16.47.16.72h-1.45c0-.18-.07-.33-.19-.43-.12-.1-.25-.15-.4-.15s-.29.05-.4.15c-.12.1-.17.22-.17.37,0,.18.09.32.28.42.18.1.51.22.97.35.21.06.4.13.58.22.18.09.34.2.47.33.13.13.24.28.31.46s.11.39.11.64c0,.26-.06.51-.17.75-.12.24-.27.44-.47.62-.2.18-.43.32-.7.42s-.55.16-.86.16c-.29,0-.56-.05-.82-.16-.26-.1-.49-.25-.69-.44-.2-.19-.36-.41-.49-.68s-.2-.56-.22-.88h1.44Z"/><path class="uuid-2061e19c-e1a7-4c20-aba5-29f540e13e9f" d="M99.42,171.1h1.44v1.57h1.2v1.37h-1.2v2.52c0,.5.24.74.71.74h.49v1.37h-.68c-.61,0-1.09-.16-1.43-.47-.35-.31-.52-.84-.52-1.6v-2.57h-.89v-1.37h.89v-1.57Z"/><path class="uuid-2061e19c-e1a7-4c20-aba5-29f540e13e9f" d="M106.87,174.27c-.25-.17-.46-.4-.64-.71-.18-.3-.27-.64-.27-1s.07-.67.2-.97c.14-.3.32-.56.55-.79.23-.22.5-.4.81-.53.31-.13.63-.19.98-.19s.67.06.97.19c.3.13.57.3.8.53.23.22.41.49.55.79.14.3.2.62.2.97s-.09.69-.27,1c-.18.3-.39.54-.64.71.14.09.27.2.4.34.13.14.25.3.35.47s.18.36.24.56c.06.2.09.4.09.6,0,.36-.07.7-.22,1.02-.14.32-.34.6-.58.83-.24.24-.53.42-.85.56-.32.14-.67.2-1.04.2s-.72-.07-1.04-.2c-.33-.14-.61-.32-.86-.56-.24-.24-.44-.51-.58-.83-.14-.32-.22-.66-.22-1.02,0-.2.03-.4.09-.6.06-.2.14-.39.24-.56s.21-.33.34-.47c.13-.14.26-.25.4-.34ZM108.51,177.42c.15,0,.3-.03.44-.1.14-.06.26-.15.37-.26.1-.11.19-.23.25-.37.06-.14.09-.29.09-.45s-.03-.32-.09-.47c-.06-.14-.14-.27-.25-.38s-.23-.2-.37-.26c-.14-.06-.29-.1-.44-.1-.16,0-.31.03-.45.1-.14.06-.26.15-.37.26-.1.11-.19.24-.25.38-.06.14-.09.3-.09.47s.03.31.09.45c.06.14.14.26.25.37.1.11.23.19.37.26.14.06.29.1.45.1ZM108.51,173.59c.26,0,.49-.1.68-.29.19-.2.29-.44.29-.73,0-.14-.03-.27-.08-.39-.05-.12-.12-.23-.21-.33-.09-.1-.19-.17-.31-.23-.12-.06-.24-.08-.37-.08-.28,0-.52.1-.71.31s-.29.45-.29.73.1.53.29.73.43.29.71.29Z"/><path class="uuid-2061e19c-e1a7-4c20-aba5-29f540e13e9f" d="M112.68,177.12h1.56v1.56h-1.56v-1.56Z"/><path class="uuid-2061e19c-e1a7-4c20-aba5-29f540e13e9f" d="M117.3,181.08v-1.37h.2c.1,0,.21-.01.31-.04.1-.03.19-.08.27-.15s.14-.17.19-.29c.05-.12.07-.27.07-.46v-6.1h1.44v6.05c0,.43-.05.8-.16,1.1-.11.3-.25.54-.44.73-.18.18-.4.32-.65.4s-.51.13-.79.13h-.44ZM118.35,170.28h1.44v1.44h-1.44v-1.44Z"/><path class="uuid-2061e19c-e1a7-4c20-aba5-29f540e13e9f" d="M125.4,178.22c-.23.17-.49.31-.77.41-.28.11-.57.16-.88.16-.43,0-.84-.08-1.22-.25-.38-.16-.72-.39-1-.67-.28-.28-.5-.61-.67-.99s-.25-.79-.25-1.22.08-.84.25-1.22.39-.71.67-.99c.28-.28.61-.5,1-.67.38-.16.79-.25,1.22-.25.3,0,.59.05.87.16.28.11.54.25.77.41v-.46h1.44v6h-1.44v-.46ZM125.4,174.72s-.06-.08-.13-.16c-.07-.08-.17-.17-.3-.26s-.29-.17-.47-.24-.41-.11-.68-.11c-.25,0-.48.05-.68.14s-.39.22-.55.37c-.16.16-.28.34-.37.55s-.13.43-.13.67.04.46.13.67.21.39.37.55c.16.16.34.28.55.37s.44.14.68.14c.28,0,.52-.04.72-.12.2-.08.36-.17.49-.28.14-.11.27-.24.37-.4v-1.9Z"/><path class="uuid-2061e19c-e1a7-4c20-aba5-29f540e13e9f" d="M128.04,172.68h1.44v.46c.23-.17.49-.31.78-.41.29-.11.58-.16.89-.16.86,0,1.51.25,1.96.75.45.5.67,1.21.67,2.13v3.24h-1.46v-3.24c0-.46-.1-.82-.31-1.09-.2-.27-.52-.41-.94-.41-.22,0-.42.03-.6.08-.18.06-.33.13-.46.21s-.24.17-.33.26c-.09.09-.15.17-.19.24v3.95h-1.44v-6Z"/><path class="uuid-2061e19c-e1a7-4c20-aba5-29f540e13e9f" d="M139.03,178.68v-.43c-.21.16-.45.29-.71.4-.27.1-.55.16-.83.16-.93,0-1.6-.25-2.01-.75s-.62-1.21-.62-2.13v-3.24h1.46v3.24c0,.23.02.44.05.62.04.18.1.34.2.47.1.13.22.23.38.3.16.07.36.11.61.11s.46-.04.64-.11c.18-.07.33-.15.44-.24.12-.09.24-.23.38-.43v-3.96h1.44v6h-1.44Z"/><path class="uuid-2061e19c-e1a7-4c20-aba5-29f540e13e9f" d="M146.09,178.22c-.23.17-.49.31-.77.41-.28.11-.57.16-.88.16-.43,0-.84-.08-1.22-.25-.38-.16-.72-.39-1-.67-.28-.28-.5-.61-.67-.99s-.25-.79-.25-1.22.08-.84.25-1.22.39-.71.67-.99c.28-.28.61-.5,1-.67.38-.16.79-.25,1.22-.25.3,0,.59.05.87.16.28.11.54.25.77.41v-.46h1.44v6h-1.44v-.46ZM146.09,174.72s-.06-.08-.13-.16c-.07-.08-.17-.17-.3-.26s-.29-.17-.47-.24-.41-.11-.68-.11c-.25,0-.48.05-.68.14s-.39.22-.55.37c-.16.16-.28.34-.37.55s-.13.43-.13.67.04.46.13.67.21.39.37.55c.16.16.34.28.55.37s.44.14.68.14c.28,0,.52-.04.72-.12.2-.08.36-.17.49-.28.14-.11.27-.24.37-.4v-1.9Z"/><path class="uuid-2061e19c-e1a7-4c20-aba5-29f540e13e9f" d="M148.73,172.68h1.44v.67c.15-.18.33-.34.55-.47s.47-.2.77-.2h.41v1.37h-.31c-.3,0-.58.09-.84.28-.26.18-.46.44-.58.77v3.59h-1.44v-6Z"/><g id="uuid-5d193ac8-ff8c-40e8-b43e-2c21ecf41b18"><path class="uuid-2061e19c-e1a7-4c20-aba5-29f540e13e9f" d="M60.48,24.97c0,.36.06.69.19.99.13.3.3.56.52.78.22.22.48.39.78.52.3.12.62.18.98.18s.68-.06.99-.17c.31-.11.57-.27.8-.48.23-.21.41-.46.54-.75.13-.29.2-.61.2-.96s-.06-.66-.18-.9c-.12-.24-.28-.44-.48-.61-.2-.17-.43-.31-.68-.43-.26-.12-.53-.24-.81-.35-.22-.09-.44-.18-.64-.26-.21-.09-.39-.18-.54-.29-.16-.11-.28-.24-.38-.38-.1-.15-.15-.32-.15-.53,0-.39.12-.7.38-.94.25-.24.57-.35.97-.35s.72.13.97.38c.25.25.37.59.37,1.02h.86c0-.31-.05-.6-.16-.87-.1-.26-.25-.49-.45-.69-.19-.19-.43-.35-.7-.46-.27-.11-.57-.17-.9-.17s-.62.05-.89.16c-.27.1-.5.25-.69.44-.19.19-.34.41-.45.66-.11.26-.16.53-.16.82,0,.35.06.64.19.87.13.23.29.42.5.59.21.16.44.3.71.42.27.12.55.23.84.34.21.08.41.17.61.26.2.09.37.2.52.32.15.12.27.25.36.41.09.16.14.34.14.55,0,.22-.04.43-.12.62-.08.19-.2.36-.35.5s-.33.25-.53.33c-.21.08-.43.12-.68.12s-.47-.04-.67-.13c-.2-.09-.37-.2-.51-.35-.14-.15-.25-.33-.33-.53-.08-.21-.12-.43-.12-.67h-.84ZM53.5,24.56c0,.48.08.9.25,1.26.16.36.38.66.66.9.27.24.58.42.93.54.34.12.7.18,1.05.18s.71-.06,1.05-.18c.34-.12.65-.3.93-.54.27-.24.49-.54.65-.9.16-.36.25-.78.25-1.26v-5.13h-.85v5.01c0,.42-.06.77-.18,1.05-.12.28-.27.51-.47.68-.19.17-.41.3-.65.37-.24.07-.49.11-.73.11s-.49-.04-.73-.11c-.24-.07-.46-.2-.65-.37-.19-.17-.35-.4-.47-.68-.12-.28-.18-.63-.18-1.05v-5.01h-.85v5.13ZM46.06,27.27h.84v-3.7h4.15v3.7h.84v-7.85h-.84v3.36h-4.15v-3.36h-.84v7.85ZM40.28,23.18v-2.97h1.83c.28,0,.52.04.74.12.22.08.4.19.54.32.14.13.25.29.32.48.07.18.11.38.11.58s-.04.39-.11.57c-.07.18-.18.34-.32.47-.14.13-.32.24-.54.32-.22.08-.46.12-.74.12h-1.83ZM39.44,27.27h.84v-3.31h1.23l2.24,3.31h1.02l-2.26-3.32c.34-.04.64-.12.9-.25.26-.13.49-.29.68-.49.19-.2.33-.43.43-.68.1-.26.15-.53.15-.82,0-.31-.06-.61-.17-.89-.12-.28-.28-.52-.49-.72-.21-.21-.48-.37-.79-.49-.31-.12-.66-.18-1.05-.18h-2.72v7.85ZM33.22,24.41l1.51-3.5,1.63,3.5h-3.14ZM31.08,27.27h.91l.9-2.07h3.83l.96,2.07h.91l-3.87-8.24-3.64,8.24ZM25.55,24.41l1.51-3.5,1.63,3.5h-3.14ZM23.41,27.27h.91l.9-2.07h3.83l.96,2.07h.91l-3.87-8.24-3.64,8.24Z"/></g><path class="uuid-2061e19c-e1a7-4c20-aba5-29f540e13e9f" d="M36.14,36.55c0,.37.07.71.2,1.02.13.31.32.57.55.79.23.22.51.38.82.5.32.12.66.17,1.04.17s.73-.06,1.06-.17c.33-.12.61-.28.85-.5.24-.22.43-.48.56-.79.13-.31.2-.65.2-1.02s-.06-.66-.19-.9c-.13-.24-.29-.45-.5-.63-.21-.18-.45-.33-.73-.45-.28-.13-.56-.26-.85-.39-.17-.07-.34-.15-.5-.22-.16-.07-.3-.15-.42-.24-.12-.09-.22-.18-.29-.29-.07-.11-.11-.22-.11-.36,0-.26.09-.48.26-.65.18-.17.39-.25.66-.25s.48.08.64.25c.16.16.25.37.26.61h1.46c0-.31-.06-.61-.17-.87-.11-.27-.27-.5-.48-.69-.21-.19-.45-.35-.75-.46-.29-.11-.61-.17-.96-.17s-.67.06-.96.17c-.29.12-.54.28-.75.48-.21.2-.38.44-.49.71-.12.27-.17.57-.17.88,0,.37.06.69.17.95.12.26.27.48.48.66.2.18.43.33.69.46.26.13.54.25.83.36.17.07.34.14.51.21.17.07.32.16.45.25.13.09.24.2.33.31.08.12.12.25.12.41,0,.31-.11.56-.32.74-.21.18-.51.27-.89.27-.17,0-.33-.03-.46-.1-.14-.06-.26-.15-.36-.25-.1-.1-.18-.22-.24-.36-.06-.13-.09-.28-.09-.43h-1.46ZM30.18,36.55c0,.37.07.71.2,1.02.13.31.32.57.55.79.23.22.51.38.82.5.32.12.66.17,1.04.17s.73-.06,1.06-.17c.32-.12.61-.28.85-.5.24-.22.43-.48.56-.79.14-.31.2-.65.2-1.02s-.06-.66-.19-.9c-.13-.24-.29-.45-.5-.63-.21-.18-.45-.33-.73-.45-.28-.13-.56-.26-.85-.39-.17-.07-.34-.15-.5-.22-.16-.07-.3-.15-.42-.24s-.22-.18-.29-.29c-.07-.11-.11-.22-.11-.36,0-.26.09-.48.26-.65.18-.17.39-.25.65-.25s.47.08.64.25c.16.16.25.37.26.61h1.46c0-.31-.06-.61-.17-.87-.11-.27-.27-.5-.48-.69-.21-.19-.45-.35-.75-.46-.29-.11-.61-.17-.96-.17s-.67.06-.96.17c-.29.12-.54.28-.75.48-.21.2-.38.44-.49.71-.12.27-.17.57-.17.88,0,.37.06.69.17.95.12.26.27.48.48.66.2.18.43.33.7.46.26.13.54.25.83.36.17.07.34.14.51.21.17.07.32.16.45.25.13.09.24.2.32.31.08.12.12.25.12.41,0,.31-.11.56-.32.74-.21.18-.51.27-.89.27-.17,0-.33-.03-.47-.1-.14-.06-.26-.15-.36-.25-.1-.1-.18-.22-.24-.36-.06-.13-.09-.28-.09-.43h-1.46ZM24.87,34.09v-1.74h1.36c.43,0,.73.09.91.26.18.17.27.38.27.62,0,.22-.04.4-.11.54-.07.14-.15.25-.22.33h-2.2ZM24.87,37.51v-2.07h1.76c.4,0,.69.1.88.31.19.21.29.45.29.73s-.1.53-.31.73c-.21.2-.54.3-1.01.3h-1.6ZM23.41,38.85h3.14c.45,0,.85-.06,1.19-.18.34-.12.62-.29.85-.51.22-.22.39-.47.5-.76.11-.29.16-.6.16-.92,0-.44-.1-.83-.3-1.18-.2-.34-.44-.61-.71-.8.05-.05.11-.12.18-.2.07-.08.14-.18.2-.29.06-.11.12-.24.16-.38.04-.14.07-.29.07-.44,0-.31-.05-.59-.16-.86-.1-.27-.27-.5-.48-.69-.22-.2-.49-.35-.81-.47-.33-.11-.7-.17-1.14-.17h-2.86v7.85Z"/></svg>